<svg width="100%" height="100%" viewBox="500 0 720 800" version="1.1" xmlns="http://www.w3.org/2000/svg" xmlns:xlink="http://www.w3.org/1999/xlink" xml:space="preserve" style="fill-rule:evenodd;clip-rule:evenodd;stroke-linecap:round;stroke-linejoin:round;stroke-miterlimit:1.5;"><path d="M904.589,518l-77,0l0.089,77l76.911,0l0,-77Z" style="fill:none;stroke:#fb89fb;stroke-width:4px;"/><path d="M866.089,465.11l0,52.89" style="fill:none;stroke:#fb89fb;stroke-width:4px;"/><path d="M904.589,388.11l-77,0l0.089,77l76.911,0l0,-77Z" style="fill:none;stroke:#fb89fb;stroke-width:4px;"/><path d="M797,324.605c59.554,-0.236 69,0 69,0c0,0 0.201,64.212 0,63.5" style="fill:none;stroke:#fb89fb;stroke-width:4px;"/><path d="M689.411,388.11l-77,0l0.089,77l76.911,0l0,-77Z" style="fill:none;stroke:#fb89fb;stroke-width:4px;"/><path d="M1119.09,388.11l-77,0l0.089,77l76.911,0l0,-77Z" style="fill:none;stroke:#fb89fb;stroke-width:4px;"/><path d="M720,324.605c-59.554,-0.236 -69,0 -69,0c0,0 -0.201,64.212 0,63.5" style="fill:none;stroke:#fb89fb;stroke-width:4px;"/><path d="M1011.5,324.605c59.554,-0.236 69,0 69,0c0,0 0.201,64.212 0,63.5" style="fill:none;stroke:#fb89fb;stroke-width:4px;"/><path d="M797,286l-77,0l0.089,77l76.911,0l0,-77Z" style="fill:none;stroke:#fb89fb;stroke-width:4px;"/><path d="M827.5,222.5c-59.554,-0.235 -69,0 -69,0c0,0 -0.201,64.212 0,63.5" style="fill:none;stroke:#fb89fb;stroke-width:4px;"/><path d="M1011.5,286l-77,0l0.089,77l76.911,0l0,-77Z" style="fill:none;stroke:#fb89fb;stroke-width:4px;"/><path d="M904.589,222.494c59.554,-0.235 69,0 69,0c0,0 0.201,64.212 0,63.5" style="fill:none;stroke:#fb89fb;stroke-width:4px;"/><path d="M904.5,184l-77,0l0.089,77l76.911,0l0,-77Z" style="fill:none;stroke:#fb89fb;stroke-width:4px;"/><use xlink:href="#_Image1" x="328.999" y="79.95" width="539.001px" height="298.28px" transform="matrix(1,0,0,0.997592,0,0)"/></svg>